<svg id="f4af45bc-6e30-4984-9400-472355a9b142" data-name="svg-bathrooms" xmlns="http://www.w3.org/2000/svg" viewBox="0 0 93.7 84.3"><title>bathrooms</title><line x1="21.8" y1="76" x2="21.8" y2="84.3" style="fill:none;stroke:#9ac6d6;stroke-miterlimit:10;stroke-width:2px"/><line x1="71.8" y1="76" x2="71.8" y2="84.3" style="fill:none;stroke:#9ac6d6;stroke-miterlimit:10;stroke-width:2px"/><path d="M916.2,56.2v8.4a20.7,20.7,0,0,0,20.9,20.8h50a20.7,20.7,0,0,0,20.8-20.8V56.2Z" transform="translate(-915.2 -9.4)" style="fill:none;stroke:#9ac6d6;stroke-miterlimit:10;stroke-width:2px"/><path d="M1007.9,56.2V22.9a12.3,12.3,0,0,0-12.5-12.5h0a12.3,12.3,0,0,0-12.5,12.5h0" transform="translate(-915.2 -9.4)" style="fill:none;stroke:#9ac6d6;stroke-miterlimit:10;stroke-width:2px"/><path d="M995.4,35.4h-25a12.3,12.3,0,0,1,12.5-12.5h0a12.3,12.3,0,0,1,12.5,12.5Z" transform="translate(-915.2 -9.4)" style="fill:none;stroke:#9ac6d6;stroke-miterlimit:10;stroke-width:2px"/></svg>