<svg id="svg-bathrooms" viewBox="0 0 24 24" width="100%" height="100%"><g transform="translate(0.5, 0.5)"> <line fill="none" stroke-linecap="square" stroke-miterlimit="10" x1="6" y1="20" x2="6" y2="22" stroke-linejoin="miter"></line> <line fill="none" stroke-linecap="square" stroke-miterlimit="10" x1="18" y1="20" x2="18" y2="22" stroke-linejoin="miter"></line> <path fill="none" stroke-linecap="square" stroke-miterlimit="10" d="M1,13v2c0,2.8,2.2,5,5,5h12 c2.8,0,5-2.2,5-5v-2H1z" stroke-linejoin="miter"></path> <path fill="none" stroke-linecap="square" stroke-miterlimit="10" d="M23,13V5c0-1.7-1.3-3-3-3 l0,0c-1.7,0-3,1.3-3,3l0,0" stroke-linejoin="miter"></path> <path fill="none" stroke-linecap="square" stroke-miterlimit="10" d="M20,8h-6l0,0 c0-1.7,1.3-3,3-3l0,0C18.7,5,20,6.3,20,8L20,8z" stroke-linejoin="miter"></path> </g></svg>